name rise32.9588peak41.5061fall63.4684.mot
datacolumns 19
datarows 32
range 5.82497900000000 5.87665000000000
endheader
time	ground_force1_vx	ground_force1_vy	ground_force1_vz	ground_force1_px	ground_force1_py	ground_force1_pz	ground_force2_vx	ground_force2_vy	ground_force2_vz	ground_force2_px	ground_force2_py	ground_force2_pz	ground_torque1_x	ground_torque1_y	ground_torque1_z	ground_torque2_x	ground_torque2_y	ground_torque2_z	
5.82497900000000	-2.76314300000000	46.73250600000000	-4.72787100000000	0.28603400000000	0.00000000000000	0.09541500000000	-38.72923400000000	748.23030500000004	-51.03289300000000	0.12356100000000	0.00000000000000	-0.07749600000000	0.00000000000000	-3.21036500000000	0.00000000000000	0.00000000000000	-16.93875600000000	0.00000000000000	
5.82664400000000	-2.82844800000000	55.34529400000000	-5.23623600000000	0.29311400000000	0.00000000000000	0.09625300000000	-39.02866400000000	744.96596799999998	-50.50408900000000	0.12302100000000	0.00000000000000	-0.07734000000000	0.00000000000000	-3.63414500000000	0.00000000000000	0.00000000000000	-16.80561500000000	0.00000000000000	
5.82830800000000	-2.78308900000000	64.21302000000000	-5.66772800000000	0.29932400000000	0.00000000000000	0.09699000000000	-39.36816800000000	741.60040100000003	-49.95542200000000	0.12247500000000	0.00000000000000	-0.07717900000000	0.00000000000000	-4.02053800000000	0.00000000000000	0.00000000000000	-16.67718700000000	0.00000000000000	
5.82997800000000	-2.61750000000000	73.23168500000000	-6.00903600000000	0.30483300000000	0.00000000000000	0.09764700000000	-39.74713100000000	738.12914200000000	-49.38680300000000	0.12192300000000	0.00000000000000	-0.07701300000000	0.00000000000000	-4.35960400000000	0.00000000000000	0.00000000000000	-16.55341500000000	0.00000000000000	
5.83164500000000	-2.32663700000000	82.31831200000001	-6.25163200000000	0.30976900000000	0.00000000000000	0.09823600000000	-40.16472800000000	734.54759100000001	-48.79816700000000	0.12136800000000	0.00000000000000	-0.07684300000000	0.00000000000000	-4.64450500000000	0.00000000000000	0.00000000000000	-16.43420800000000	0.00000000000000	
5.83331600000000	-1.90979000000000	91.41398700000001	-6.39176200000000	0.31422900000000	0.00000000000000	0.09877100000000	-40.61992400000000	730.85102600000005	-48.18946600000000	0.12080800000000	0.00000000000000	-0.07666800000000	0.00000000000000	-4.87159100000000	0.00000000000000	0.00000000000000	-16.31944200000000	0.00000000000000	
5.83498300000000	-1.37006500000000	100.48441500000000	-6.43004400000000	0.31829100000000	0.00000000000000	0.09925800000000	-41.11147300000000	727.03462700000000	-47.56068100000000	0.12024600000000	0.00000000000000	-0.07648900000000	0.00000000000000	-5.04020800000000	0.00000000000000	0.00000000000000	-16.20895900000000	0.00000000000000	
5.83664300000000	-0.71366100000000	109.51833999999999	-6.37079000000000	0.32201600000000	0.00000000000000	0.09970600000000	-41.63792000000000	723.09349999999995	-46.91181600000000	0.11968200000000	0.00000000000000	-0.07630500000000	0.00000000000000	-5.15229800000000	0.00000000000000	0.00000000000000	-16.10256600000000	0.00000000000000	
5.83830900000000	0.05098100000000	118.52434000000000	-6.22112800000000	0.32545200000000	0.00000000000000	0.10012000000000	-42.19760400000000	719.02270499999997	-46.24290700000000	0.11911800000000	0.00000000000000	-0.07611600000000	0.00000000000000	-5.21185000000000	0.00000000000000	0.00000000000000	-16.00004000000000	0.00000000000000	
5.83997600000000	0.91405700000000	127.52654200000001	-5.99006300000000	0.32863800000000	0.00000000000000	0.10050400000000	-42.78866400000000	714.81727999999998	-45.55401900000000	0.11855400000000	0.00000000000000	-0.07592300000000	0.00000000000000	-5.22428000000000	0.00000000000000	0.00000000000000	-15.90112500000000	0.00000000000000	
5.84164100000000	1.86523100000000	136.55980700000001	-5.68753400000000	0.33160800000000	0.00000000000000	0.10086300000000	-43.40904000000000	710.47226899999998	-44.84525400000000	0.11799200000000	0.00000000000000	-0.07572500000000	0.00000000000000	-5.19579900000000	0.00000000000000	0.00000000000000	-15.80553400000000	0.00000000000000	
5.84331500000000	2.89435700000000	145.66486300000000	-5.32357100000000	0.33438700000000	0.00000000000000	0.10119900000000	-44.05648200000000	705.98275500000000	-44.11674800000000	0.11743200000000	0.00000000000000	-0.07552300000000	0.00000000000000	-5.13282700000000	0.00000000000000	0.00000000000000	-15.71295400000000	0.00000000000000	
5.84498100000000	3.99205800000000	154.88378700000001	-4.90758500000000	0.33699900000000	0.00000000000000	0.10151600000000	-44.72855800000000	701.34388500000000	-43.36867500000000	0.11687600000000	0.00000000000000	-0.07531700000000	0.00000000000000	-5.04148800000000	0.00000000000000	0.00000000000000	-15.62304000000000	0.00000000000000	
5.84664500000000	5.15013900000000	164.25613200000001	-4.44783200000000	0.33946100000000	0.00000000000000	0.10181400000000	-45.42266000000000	696.55090499999994	-42.60125200000000	0.11632500000000	0.00000000000000	-0.07510600000000	0.00000000000000	-4.92721900000000	0.00000000000000	0.00000000000000	-15.53542400000000	0.00000000000000	
5.84831100000000	6.36182100000000	173.81588700000000	-3.95105800000000	0.34178900000000	0.00000000000000	0.10209700000000	-46.13601200000000	691.59918600000003	-41.81473600000000	0.11578000000000	0.00000000000000	-0.07489000000000	0.00000000000000	-4.79449700000000	0.00000000000000	0.00000000000000	-15.44971200000000	0.00000000000000	
5.84999300000000	7.62183300000000	183.58934600000001	-3.42232500000000	0.34399600000000	0.00000000000000	0.10236600000000	-46.86568300000000	686.48425799999995	-41.00943200000000	0.11524200000000	0.00000000000000	-0.07467000000000	0.00000000000000	-4.64668600000000	0.00000000000000	0.00000000000000	-15.36549000000000	0.00000000000000	
5.85165000000000	8.92635400000000	193.59389700000000	-2.86499800000000	0.34609400000000	0.00000000000000	0.10262200000000	-47.60859800000000	681.20183699999995	-40.18568700000000	0.11471300000000	0.00000000000000	-0.07444500000000	0.00000000000000	-4.48599700000000	0.00000000000000	0.00000000000000	-15.28232000000000	0.00000000000000	
5.85330900000000	10.27285200000000	203.83764800000000	-2.28085900000000	0.34809200000000	0.00000000000000	0.10286600000000	-48.36154400000000	675.74785399999996	-39.34390100000000	0.11419300000000	0.00000000000000	-0.07421600000000	0.00000000000000	-4.31354800000000	0.00000000000000	0.00000000000000	-15.19975000000000	0.00000000000000	
5.85497600000000	11.65985200000000	214.31976499999999	-1.67032700000000	0.34999800000000	0.00000000000000	0.10310000000000	-49.12118900000000	670.11847899999998	-38.48452200000000	0.11368500000000	0.00000000000000	-0.07398200000000	0.00000000000000	-4.12948600000000	0.00000000000000	0.00000000000000	-15.11731000000000	0.00000000000000	
5.85664900000000	13.08665200000000	225.03137400000000	-1.03273800000000	0.35181900000000	0.00000000000000	0.10332500000000	-49.88409300000000	664.31015100000002	-37.60805100000000	0.11318900000000	0.00000000000000	-0.07374400000000	0.00000000000000	-3.93317000000000	0.00000000000000	0.00000000000000	-15.03451700000000	0.00000000000000	
5.85831500000000	14.55302900000000	235.95684299999999	-0.36666000000000	0.35356100000000	0.00000000000000	0.10354100000000	-50.64671800000000	658.31959600000005	-36.71504400000000	0.11270600000000	0.00000000000000	-0.07350100000000	0.00000000000000	-3.72337700000000	0.00000000000000	0.00000000000000	-14.95087700000000	0.00000000000000	
5.85998200000000	16.05895200000000	247.07529400000001	0.32979100000000	0.35522900000000	0.00000000000000	0.10374900000000	-51.40544800000000	652.14385100000004	-35.80611400000000	0.11223800000000	0.00000000000000	-0.07325300000000	0.00000000000000	-3.49851800000000	0.00000000000000	0.00000000000000	-14.86588800000000	0.00000000000000	
5.86164800000000	17.60433100000000	258.36218200000002	1.05864900000000	0.35682700000000	0.00000000000000	0.10394900000000	-52.15660100000000	645.78028099999995	-34.88192900000000	0.11178600000000	0.00000000000000	-0.07300100000000	0.00000000000000	-3.25683900000000	0.00000000000000	0.00000000000000	-14.77904400000000	0.00000000000000	
5.86331600000000	19.18880100000000	269.79081400000001	1.82184900000000	0.35835900000000	0.00000000000000	0.10414300000000	-52.89644400000000	639.22659499999997	-33.94322300000000	0.11135000000000	0.00000000000000	-0.07274400000000	0.00000000000000	-2.99660600000000	0.00000000000000	0.00000000000000	-14.68983400000000	0.00000000000000	
5.86497900000000	20.81156100000000	281.33371599999998	2.62101300000000	0.35982800000000	0.00000000000000	0.10433100000000	-53.62121100000000	632.48086599999999	-32.99078700000000	0.11093400000000	0.00000000000000	-0.07248300000000	0.00000000000000	-2.71625400000000	0.00000000000000	0.00000000000000	-14.59775200000000	0.00000000000000	
5.86664200000000	22.47127100000000	292.96377699999999	3.45730300000000	0.36123600000000	0.00000000000000	0.10451300000000	-54.32712100000000	625.54154500000004	-32.02547900000000	0.11053700000000	0.00000000000000	-0.07221600000000	0.00000000000000	-2.41449800000000	0.00000000000000	0.00000000000000	-14.50229200000000	0.00000000000000	
5.86830700000000	24.16599600000000	304.65512600000000	4.33132600000000	0.36258700000000	0.00000000000000	0.10468900000000	-55.01039100000000	618.40747399999998	-31.04821800000000	0.11016000000000	0.00000000000000	-0.07194500000000	0.00000000000000	-2.09040700000000	0.00000000000000	0.00000000000000	-14.40295500000000	0.00000000000000	
5.86998300000000	25.89319600000000	316.38374199999998	5.24309200000000	0.36388000000000	0.00000000000000	0.10486100000000	-55.66725900000000	611.07790599999998	-30.05999000000000	0.10980500000000	0.00000000000000	-0.07166900000000	0.00000000000000	-1.74344200000000	0.00000000000000	0.00000000000000	-14.29925400000000	0.00000000000000	
5.87164100000000	27.64976100000000	328.12780600000002	6.19201800000000	0.36511900000000	0.00000000000000	0.10502800000000	-56.29400100000000	603.55252399999995	-29.06184600000000	0.10947400000000	0.00000000000000	-0.07138800000000	0.00000000000000	-1.37346200000000	0.00000000000000	0.00000000000000	-14.19071300000000	0.00000000000000	
5.87331600000000	29.43206800000000	339.86781600000000	7.17697100000000	0.36630500000000	0.00000000000000	0.10519100000000	-56.88694700000000	595.83145999999999	-28.05489700000000	0.10916600000000	0.00000000000000	-0.07110200000000	0.00000000000000	-0.98070200000000	0.00000000000000	0.00000000000000	-14.07687500000000	0.00000000000000	
5.87497600000000	31.23606700000000	351.58651700000001	8.19633200000000	0.36743700000000	0.00000000000000	0.10534900000000	-57.44250300000000	587.91531999999995	-27.04031600000000	0.10888400000000	0.00000000000000	-0.07081100000000	0.00000000000000	-0.56573400000000	0.00000000000000	0.00000000000000	-13.95729800000000	0.00000000000000	
5.87665000000000	33.05736900000000	363.26868899999999	9.24808200000000	0.36851700000000	0.00000000000000	0.10550400000000	-57.95717100000000	579.80521299999998	-26.01933300000000	0.10862800000000	0.00000000000000	-0.07051500000000	0.00000000000000	-0.12941200000000	0.00000000000000	0.00000000000000	-13.83156500000000	0.00000000000000	
